<svg width="24" height="24" viewBox="0 0 24 24" fill="none" xmlns="http://www.w3.org/2000/svg">
<circle cx="12" cy="12" r="3" stroke="#6c757d" stroke-width="2" stroke-linecap="round" stroke-linejoin="round"/>
<path d="M19.4 15C19.5 14.7 19.6 14.4 19.7 14C20.2 13.4 20.7 12.7 21 12C20.7 11.3 20.2 10.6 19.7 10C19.6 9.6 19.5 9.3 19.4 9" stroke="#6c757d" stroke-width="2" stroke-linecap="round" stroke-linejoin="round"/>
<path d="M17.3 7.3C16.7 6.8 16 6.3 15.3 5.8C14.7 5.5 14.4 5.4 14 5.3" stroke="#6c757d" stroke-width="2" stroke-linecap="round" stroke-linejoin="round"/>
<path d="M9 4.6C9.3 4.5 9.6 4.4 10 4.3C10.6 3.8 11.3 3.3 12 3C12.7 3.3 13.4 3.8 14 4.3C14.4 4.4 14.7 4.5 15 4.6" stroke="#6c757d" stroke-width="2" stroke-linecap="round" stroke-linejoin="round"/>
<path d="M7.3 17.3C6.8 16.7 6.3 16 5.8 15.3C5.5 14.7 5.4 14.4 5.3 14" stroke="#6c757d" stroke-width="2" stroke-linecap="round" stroke-linejoin="round"/>
<path d="M4.6 9C4.5 9.3 4.4 9.6 4.3 10C3.8 10.6 3.3 11.3 3 12C3.3 12.7 3.8 13.4 4.3 14C4.4 14.4 4.5 14.7 4.6 15" stroke="#6c757d" stroke-width="2" stroke-linecap="round" stroke-linejoin="round"/>
<path d="M9 19.4C9.3 19.5 9.6 19.6 10 19.7C10.6 20.2 11.3 20.7 12 21C12.7 20.7 13.4 20.2 14 19.7C14.4 19.6 14.7 19.5 15 19.4" stroke="#6c757d" stroke-width="2" stroke-linecap="round" stroke-linejoin="round"/>
<path d="M17.3 7.3C17.6 7 17.9 6.7 18.2 6.4C18.5 6.1 18.8 5.8 19.1 5.5C19.4 5.2 19.7 4.9 20 4.6" stroke="#6c757d" stroke-width="2" stroke-linecap="round" stroke-linejoin="round"/>
<path d="M6.7 17.3C6.4 17.6 6.1 17.9 5.8 18.2C5.5 18.5 5.2 18.8 4.9 19.1C4.6 19.4 4.3 19.7 4 20" stroke="#6c757d" stroke-width="2" stroke-linecap="round" stroke-linejoin="round"/>
<path d="M17.3 17.3C17.6 17.6 17.9 17.9 18.2 18.2C18.5 18.5 18.8 18.8 19.1 19.1C19.4 19.4 19.7 19.7 20 20" stroke="#6c757d" stroke-width="2" stroke-linecap="round" stroke-linejoin="round"/>
<path d="M6.7 6.7C6.4 6.4 6.1 6.1 5.8 5.8C5.5 5.5 5.2 5.2 4.9 4.9C4.6 4.6 4.3 4.3 4 4" stroke="#6c757d" stroke-width="2" stroke-linecap="round" stroke-linejoin="round"/>
</svg>